<svg width="30" height="52" viewBox="0 0 30 52" fill="none" xmlns="http://www.w3.org/2000/svg">
<path d="M0 6V0H6V6H12V12H18V6H24V0H30V6H24V12H18V18H12V12H6V6H0Z" fill="white" fill-opacity="0.2"/>
<path d="M0 6V0H6V6H12V12H18V6H24V0H30V6H24V12H18V18H12V12H6V6H0Z" fill="white" fill-opacity="0.2"/>
<path d="M0 6V0H6V6H12V12H18V6H24V0H30V6H24V12H18V18H12V12H6V6H0Z" fill="white" fill-opacity="0.2"/>
<path d="M0 23V17H6V23H12V29H18V23H24V17H30V23H24V29H18V35H12V29H6V23H0Z" fill="white" fill-opacity="0.4"/>
<path d="M0 23V17H6V23H12V29H18V23H24V17H30V23H24V29H18V35H12V29H6V23H0Z" fill="white" fill-opacity="0.4"/>
<path d="M0 23V17H6V23H12V29H18V23H24V17H30V23H24V29H18V35H12V29H6V23H0Z" fill="white" fill-opacity="0.4"/>
<path d="M0 40V34H6V40H12V46H18V40H24V34H30V40H24V46H18V52H12V46H6V40H0Z" fill="white" fill-opacity="0.8"/>
<path d="M0 40V34H6V40H12V46H18V40H24V34H30V40H24V46H18V52H12V46H6V40H0Z" fill="white" fill-opacity="0.8"/>
<path d="M0 40V34H6V40H12V46H18V40H24V34H30V40H24V46H18V52H12V46H6V40H0Z" fill="white" fill-opacity="0.8"/>
</svg>
