<svg width="239" height="199" viewBox="0 0 239 199" fill="none" xmlns="http://www.w3.org/2000/svg">
<path d="M79.6154 0L119.423 1.74005e-06L119.423 39.8H79.6154V79.6H39.8077V119.4H79.6154V159.2H119.423V199H79.6154V159.2H39.8077V119.4H0L1.73971e-06 79.6H39.8077L39.8077 39.8H79.6154L79.6154 0Z" fill="white"/>
<path d="M79.6154 0L119.423 1.74005e-06L119.423 39.8H79.6154V79.6H39.8077V119.4H79.6154V159.2H119.423V199H79.6154V159.2H39.8077V119.4H0L1.73971e-06 79.6H39.8077L39.8077 39.8H79.6154L79.6154 0Z" fill="white"/>
<path d="M79.6154 0L119.423 1.74005e-06L119.423 39.8H79.6154V79.6H39.8077V119.4H79.6154V159.2H119.423V199H79.6154V159.2H39.8077V119.4H0L1.73971e-06 79.6H39.8077L39.8077 39.8H79.6154L79.6154 0Z" fill="white"/>
<path d="M198.615 0L238.423 1.74005e-06V39.8H198.615V79.6H158.808V119.4H198.615V159.2H238.423V199H198.615V159.2H158.808V119.4H119V79.6H158.808V39.8H198.615V0Z" fill="white"/>
<path d="M198.615 0L238.423 1.74005e-06V39.8H198.615V79.6H158.808V119.4H198.615V159.2H238.423V199H198.615V159.2H158.808V119.4H119V79.6H158.808V39.8H198.615V0Z" fill="white"/>
<path d="M198.615 0L238.423 1.74005e-06V39.8H198.615V79.6H158.808V119.4H198.615V159.2H238.423V199H198.615V159.2H158.808V119.4H119V79.6H158.808V39.8H198.615V0Z" fill="white"/>
</svg>
